<?xml version="1.0" standalone="no"?>
<!DOCTYPE svg PUBLIC "-//W3C//DTD SVG 20010904//EN"
 "http://www.w3.org/TR/2001/REC-SVG-20010904/DTD/svg10.dtd">
<svg version="1.0" xmlns="http://www.w3.org/2000/svg"
 width="400.000000pt" height="400.000000pt" viewBox="0 0 400.000000 400.000000"
 preserveAspectRatio="xMidYMid meet">
<metadata>
Created by potrace 1.15, written by Peter Selinger 2001-2017
</metadata>
<g transform="translate(0.000000,400.000000) scale(0.100000,-0.100000)"
fill="#000000" stroke="none">
<path d="M1827 3803 c-3 -5 -7 -92 -8 -193 l-2 -185 51 -3 52 -3 0 80 c0 45 4
81 9 81 5 0 16 2 23 5 8 3 57 -32 118 -85 l103 -90 64 0 c34 0 63 2 63 4 0 2
-52 47 -115 101 -63 53 -115 98 -115 99 0 2 47 41 105 86 58 46 105 88 105 92
0 4 -27 8 -60 8 l-61 0 -90 -75 c-57 -47 -100 -75 -115 -75 -22 0 -23 4 -26
78 l-3 77 -47 3 c-25 2 -49 -1 -51 -5z"/>
<path d="M1402 3707 c-167 -60 -173 -63 -169 -87 6 -35 108 -323 118 -334 8
-9 336 97 353 115 6 5 5 18 -2 33 l-11 25 -113 -39 c-62 -21 -120 -41 -129
-45 -12 -4 -20 5 -34 40 -9 26 -13 50 -9 54 5 5 59 25 119 46 61 21 112 40
113 41 2 1 1 12 -3 23 -9 29 -29 27 -141 -14 -53 -19 -102 -35 -109 -35 -6 0
-17 19 -24 41 -15 51 -22 46 126 96 116 39 128 50 101 85 -12 14 -31 10 -186
-45z"/>
<path d="M2496 3713 c-24 -48 -126 -310 -126 -324 0 -17 339 -154 350 -142 4
4 11 18 14 29 6 20 -4 26 -115 70 -67 27 -123 53 -125 59 -5 12 21 81 33 88 5
3 57 -15 117 -40 112 -46 140 -48 134 -12 -2 17 -25 30 -110 63 -59 23 -110
45 -114 49 -8 7 25 87 35 87 3 0 60 -22 126 -50 66 -27 123 -46 127 -42 4 4 9
18 10 31 3 22 -10 29 -167 92 -93 38 -171 69 -172 69 -1 0 -9 -12 -17 -27z"/>
<path d="M932 3466 c-74 -49 -158 -124 -187 -166 -43 -62 -31 -110 53 -209 87
-102 135 -113 228 -53 89 58 201 167 209 203 7 30 -20 99 -41 106 -5 2 -26
-11 -47 -28 -37 -30 -37 -32 -22 -56 23 -35 12 -56 -59 -112 -89 -71 -104 -73
-160 -17 -54 54 -86 103 -86 133 0 25 111 130 147 140 15 3 31 -1 43 -12 21
-19 24 -18 78 29 l22 20 -27 28 c-38 40 -86 38 -151 -6z"/>
<path d="M2917 3343 c-69 -81 -123 -151 -121 -155 7 -11 249 -215 273 -230 18
-11 23 -10 35 7 9 11 16 22 16 25 0 3 -45 44 -100 90 -55 46 -100 89 -100 95
0 6 15 26 33 43 l33 32 65 -56 c113 -99 127 -108 144 -94 8 7 15 18 15 24 0 6
-43 47 -95 91 -52 43 -95 82 -95 85 0 3 15 20 33 38 l33 32 94 -81 c52 -44
101 -83 108 -86 11 -5 41 22 42 38 0 5 -96 88 -271 236 -15 13 -30 -2 -142
-134z"/>
<path d="M1620 3204 c-95 -28 -220 -82 -220 -96 0 -5 50 -156 111 -336 61
-180 116 -344 121 -364 6 -21 15 -38 20 -38 5 0 27 10 48 23 l40 22 0 408 c0
381 -1 407 -17 406 -10 0 -56 -11 -103 -25z"/>
<path d="M2257 3223 c-4 -3 -7 -185 -7 -404 l0 -398 37 -26 c21 -14 41 -25 44
-25 4 0 16 26 28 58 31 85 231 676 231 683 0 10 -127 64 -218 93 -87 27 -104
30 -115 19z"/>
<path d="M1320 3073 c-65 -43 -210 -156 -210 -165 0 -5 57 -107 127 -226 70
-120 155 -266 190 -327 35 -60 66 -111 68 -114 2 -2 31 21 63 50 l58 54 -123
363 c-67 199 -125 367 -128 372 -8 13 -15 12 -45 -7z"/>
<path d="M2574 2948 c-26 -79 -82 -245 -124 -369 l-78 -227 60 -57 c32 -31 60
-56 62 -54 4 5 309 526 353 602 18 33 33 63 33 67 0 17 -223 180 -247 180 -6
0 -33 -64 -59 -142z"/>
<path d="M3325 2969 c-88 -50 -163 -94 -168 -98 -9 -9 34 -91 48 -91 6 0 28
11 50 25 22 13 45 25 50 25 6 0 35 -43 65 -96 57 -101 106 -154 143 -154 32 1
99 33 123 61 29 33 35 67 19 112 -10 30 -163 307 -169 307 0 0 -73 -41 -161
-91z m209 -120 c25 -45 46 -90 46 -100 0 -21 -54 -59 -84 -59 -10 0 -25 8 -33
18 -17 22 -93 149 -93 156 0 6 101 66 112 66 4 0 27 -36 52 -81z"/>
<path d="M443 2931 c-17 -12 -74 -121 -71 -137 3 -17 230 -343 239 -344 8 0
49 76 49 93 0 8 -9 26 -20 40 l-21 26 59 103 58 103 42 0 c22 1 43 3 45 5 16
21 48 82 44 86 -2 2 -71 9 -153 14 -82 5 -174 11 -205 14 -31 2 -61 1 -66 -3z
m220 -111 c8 -7 -70 -150 -81 -150 -10 1 -106 137 -110 155 -3 13 11 14 90 9
51 -4 97 -10 101 -14z"/>
<path d="M1017 2818 c-55 -63 -157 -205 -157 -219 0 -15 542 -511 549 -503 5
5 21 32 36 60 l28 50 -73 125 c-40 68 -119 203 -175 299 -129 221 -146 250
-150 250 -2 0 -28 -28 -58 -62z"/>
<path d="M2878 2824 c-59 -98 -310 -526 -336 -574 l-25 -45 33 -55 c19 -30 35
-57 36 -59 3 -3 298 269 473 435 l75 71 -56 84 c-31 46 -80 111 -110 143 l-54
60 -36 -60z"/>
<path d="M801 2480 c-30 -67 -81 -228 -81 -255 0 -13 -8 -10 280 -130 113 -47
235 -99 273 -116 37 -16 74 -29 81 -29 9 0 18 19 25 49 l11 50 -62 58 c-35 32
-101 94 -148 138 -237 223 -323 300 -334 303 -8 2 -26 -27 -45 -68z"/>
<path d="M2895 2324 c-328 -307 -296 -270 -283 -326 6 -27 16 -48 22 -48 6 0
151 59 323 132 244 103 313 136 313 150 0 26 -59 205 -87 265 -14 29 -30 53
-37 52 -6 0 -119 -101 -251 -225z"/>
<path d="M3565 2438 c-93 -17 -172 -32 -174 -34 -4 -4 29 -215 50 -321 9 -46
14 -53 34 -53 13 0 26 4 30 9 3 6 -4 67 -16 136 -12 69 -19 129 -16 132 11 10
90 24 97 16 4 -4 15 -55 25 -113 22 -130 22 -130 51 -130 30 0 30 5 4 145 -11
60 -18 110 -15 113 2 2 24 7 48 9 51 6 43 24 73 -154 17 -102 17 -103 46 -103
36 0 36 5 0 215 -25 142 -30 160 -47 161 -11 1 -96 -12 -190 -28z"/>
<path d="M211 2383 c-32 -188 -47 -305 -39 -309 10 -6 371 -64 375 -60 2 1 14
77 28 167 14 90 27 174 29 187 2 17 -3 24 -21 28 -13 4 -28 3 -33 -2 -5 -5
-17 -65 -27 -134 l-19 -125 -49 3 c-27 1 -51 4 -53 7 -3 3 3 59 12 124 10 66
15 124 11 130 -3 6 -15 11 -25 11 -20 0 -22 -5 -44 -148 -9 -51 -17 -96 -20
-100 -3 -5 -24 -6 -48 -2 -49 6 -47 -8 -23 159 18 120 15 130 -27 131 -12 0
-19 -16 -27 -67z"/>
<path d="M1660 2316 c-240 -156 -323 -458 -193 -707 42 -82 116 -166 187 -213
94 -62 86 -102 86 458 0 272 -3 497 -7 499 -5 3 -37 -14 -73 -37z"/>
<path d="M2256 2353 c-3 -3 -6 -228 -6 -500 0 -439 2 -493 16 -493 26 0 129
77 182 136 157 176 182 418 64 632 -46 85 -232 249 -256 225z"/>
<path d="M1903 2202 c-109 -55 -132 -72 -95 -72 28 0 82 -38 92 -66 16 -41
-13 -90 -71 -122 -27 -15 -49 -30 -49 -34 0 -5 99 -8 220 -8 231 0 244 3 195
42 -14 11 -32 35 -40 54 -15 37 -35 163 -35 225 l0 39 -52 -1 c-44 0 -73 -10
-165 -57z"/>
<path d="M2965 2046 c-170 -72 -316 -135 -322 -139 -8 -5 -13 -30 -13 -63 0
-37 4 -54 13 -53 6 0 156 17 332 38 l320 37 -1 140 c0 77 -5 146 -10 155 -8
13 -54 -3 -319 -115z"/>
<path d="M705 2160 c-3 -5 -9 -73 -12 -149 l-6 -140 24 -5 c13 -3 152 -19 309
-36 157 -17 298 -33 313 -36 l28 -6 -3 58 -3 59 -212 90 c-445 190 -427 183
-438 165z"/>
<path d="M3445 1874 c-8 -55 -3 -59 66 -68 55 -8 53 -2 34 -109 -18 -101 -33
-119 -99 -116 -55 3 -64 -6 -65 -67 -1 -27 3 -32 30 -38 63 -12 97 -7 116 18
l18 23 10 -31 c11 -34 40 -52 101 -62 34 -5 45 -2 71 20 18 15 36 41 42 59 18
55 70 342 63 348 -8 7 -329 69 -359 69 -17 0 -22 -9 -28 -46z m288 -110 c20
-6 21 -19 6 -100 -21 -123 -33 -139 -90 -127 -55 11 -62 36 -42 147 l18 98 45
-7 c25 -3 53 -8 63 -11z"/>
<path d="M243 1871 c-34 -16 -44 -27 -54 -61 -11 -36 -9 -61 16 -198 15 -86
31 -164 36 -172 6 -14 27 -12 171 17 90 18 174 32 187 33 23 0 23 2 17 47 -3
26 -10 51 -15 56 -4 4 -28 3 -52 -2 -24 -6 -49 -11 -55 -11 -6 0 -19 38 -28
85 -26 133 -44 182 -73 204 -33 27 -94 27 -150 2z m126 -105 c15 -18 52 -189
43 -197 -12 -11 -117 -28 -125 -20 -11 11 -39 181 -33 198 12 30 95 44 115 19z"/>
<path d="M1770 1745 l0 -115 225 0 225 0 0 115 0 115 -225 0 -225 0 0 -115z"/>
<path d="M704 1768 c4 -35 12 -80 17 -100 l10 -38 336 0 335 0 -7 23 c-3 12
-10 37 -15 56 -5 18 -12 37 -17 41 -4 4 -98 17 -208 29 -110 12 -256 28 -325
36 -69 8 -127 15 -129 15 -2 0 -1 -28 3 -62z"/>
<path d="M3160 1815 c-58 -7 -193 -22 -300 -34 -256 -29 -235 -22 -251 -78 -7
-27 -15 -54 -17 -60 -3 -10 68 -13 332 -13 l336 0 5 23 c29 129 33 178 13 176
-7 -1 -60 -7 -118 -14z"/>
<path d="M1780 1592 c-6 -2 -10 -55 -10 -132 l0 -127 61 -18 c51 -14 63 -14
70 -3 14 20 9 267 -4 275 -12 8 -98 11 -117 5z"/>
<path d="M2096 1592 c-9 -8 -7 -292 1 -292 4 0 33 7 65 16 l59 17 -3 130 -3
130 -57 2 c-31 2 -59 0 -62 -3z"/>
<path d="M1193 1293 c3 -5 40 -37 81 -71 67 -56 75 -60 81 -42 3 11 10 20 15
20 11 0 249 -105 258 -114 3 -4 -12 -4 -33 0 -472 76 -480 78 -477 103 2 23 1
24 -60 17 -100 -11 -138 -18 -138 -25 0 -4 39 -26 88 -48 l87 -41 8 24 c6 16
15 23 25 20 10 -2 124 -21 254 -42 131 -21 236 -39 234 -41 -4 -4 -293 -33
-328 -33 -21 0 -28 5 -28 20 0 11 -4 20 -10 20 -14 0 -164 -60 -174 -70 -4 -4
27 -16 70 -25 44 -9 87 -19 97 -22 13 -3 17 2 17 21 0 28 -4 27 215 46 179 16
182 15 80 -30 -49 -22 -102 -46 -117 -54 -26 -14 -29 -13 -42 6 -15 21 -16 20
-83 -37 -37 -32 -72 -63 -78 -68 -10 -10 100 -3 163 9 27 6 32 11 30 32 -3 24
5 30 102 74 58 26 111 47 117 48 7 0 -19 -52 -58 -116 -38 -64 -68 -122 -66
-128 5 -13 120 -53 177 -62 l36 -6 67 209 c37 114 67 211 67 216 0 4 -19 7
-42 8 -24 0 -52 4 -63 9 -15 6 -25 2 -40 -16 l-20 -23 -40 19 c-22 10 -94 43
-160 73 -112 50 -120 55 -117 79 3 25 1 26 -70 32 -40 4 -86 10 -102 13 -16 3
-26 1 -23 -4z"/>
<path d="M2692 1287 c-82 -10 -83 -10 -77 -36 5 -25 0 -28 -157 -98 -158 -70
-164 -72 -179 -54 -13 17 -25 19 -77 14 -37 -4 -62 -10 -62 -17 0 -19 130
-416 136 -416 15 0 131 33 165 47 22 8 39 20 39 25 0 6 -30 59 -66 120 -36 60
-64 112 -61 114 3 3 54 -17 113 -45 98 -44 109 -52 107 -74 -1 -24 2 -26 80
-37 125 -19 128 -15 45 58 -70 61 -73 62 -88 43 -15 -19 -18 -18 -129 32 -63
28 -109 53 -102 55 12 4 239 -13 319 -24 36 -5 42 -10 42 -30 0 -13 1 -24 3
-24 11 0 192 42 196 45 2 3 -7 9 -20 14 -13 5 -53 20 -88 35 -77 31 -77 31
-84 6 -4 -15 -13 -20 -39 -20 -46 1 -309 28 -314 33 -2 2 73 16 168 31 95 15
206 34 247 42 76 15 86 13 93 -19 3 -15 14 -12 91 25 48 23 87 45 87 49 0 6
-131 29 -170 29 -12 0 -20 -8 -22 -22 -3 -25 -23 -29 -328 -77 -74 -12 -146
-24 -158 -27 -50 -10 -8 15 109 66 108 47 122 51 131 37 15 -27 29 -20 103 48
50 46 64 64 50 63 -11 0 -57 -5 -103 -11z"/>
<path d="M545 1260 c-3 -4 -6 -26 -7 -48 -1 -30 5 -48 25 -72 43 -50 35 -64
-19 -35 -52 28 -91 32 -118 12 -16 -12 -13 -15 32 -40 33 -18 65 -27 96 -27
35 0 48 -5 56 -19 17 -32 13 -43 -10 -31 -29 16 -95 9 -95 -10 0 -25 64 -60
111 -60 33 0 46 -5 54 -19 15 -29 14 -30 -27 -24 -39 4 -107 -23 -103 -42 4
-23 94 -47 153 -42 31 3 57 1 57 -4 0 -5 -12 -9 -27 -9 -29 0 -93 -33 -93 -48
0 -14 134 -36 176 -29 56 9 91 -25 37 -36 -16 -3 -37 -12 -47 -20 -19 -14 -15
-16 52 -38 40 -13 72 -25 72 -29 0 -3 -13 -11 -30 -18 -32 -15 -40 -32 -14
-32 8 0 39 -11 67 -25 29 -13 76 -30 106 -38 l53 -13 -26 -17 c-14 -10 -26
-21 -26 -25 0 -12 171 -53 225 -53 49 0 50 0 29 -17 -23 -20 -46 -57 -39 -64
3 -2 52 1 110 8 85 9 113 17 145 38 28 18 45 24 56 18 12 -6 6 -11 -23 -20
-41 -13 -93 -55 -93 -76 0 -11 18 -13 88 -9 108 6 144 16 182 54 20 20 38 29
52 27 20 -3 18 -6 -19 -26 -47 -24 -83 -65 -83 -94 0 -14 5 -18 17 -14 10 3
51 10 92 16 87 12 148 42 176 87 25 40 35 40 60 0 26 -42 93 -74 181 -87 39
-5 79 -12 88 -16 11 -4 16 -1 16 14 0 28 -36 69 -83 94 -39 21 -40 23 -17 26
15 3 30 -3 40 -15 30 -36 72 -55 134 -59 33 -3 80 -6 104 -8 31 -3 42 0 42 11
0 22 -49 62 -92 75 -24 7 -35 15 -29 21 6 6 32 -2 72 -22 38 -19 78 -31 103
-32 23 0 62 -4 88 -8 27 -4 50 -6 53 -3 7 7 -15 44 -39 64 -21 17 -20 17 29
18 28 0 75 7 105 15 30 8 70 18 88 21 39 8 40 18 6 41 l-26 17 58 16 c33 9 78
26 101 38 23 12 49 22 58 22 25 0 17 29 -10 36 -41 10 -29 21 46 44 59 17 69
23 59 35 -7 8 -27 17 -46 21 -37 7 -42 15 -20 33 9 7 29 9 55 5 42 -7 157 12
167 27 8 13 -57 49 -88 49 -16 0 -28 4 -28 9 0 5 26 7 58 4 46 -4 67 0 112 19
l55 24 -30 20 c-18 12 -47 19 -77 19 -29 0 -48 4 -48 11 0 21 32 38 67 35 37
-3 117 42 110 63 -5 15 -72 19 -97 6 -23 -12 -25 -5 -6 30 12 21 20 24 55 21
30 -2 54 5 91 26 27 15 50 31 50 34 0 9 -38 19 -70 19 -14 0 -42 -9 -63 -20
-59 -32 -63 -23 -17 35 26 32 29 44 24 74 -9 50 -18 57 -48 37 -28 -18 -32
-44 -15 -94 7 -20 7 -37 1 -48 -8 -14 -11 -11 -21 17 -13 38 -58 89 -78 89
-14 0 -10 -36 7 -70 13 -25 -13 -113 -43 -144 -25 -27 -32 -44 -28 -73 1 -7
-5 -13 -13 -13 -9 0 -28 -18 -43 -41 -24 -36 -25 -44 -15 -71 12 -31 9 -48 -9
-48 -5 0 -9 11 -9 25 0 14 -5 25 -11 25 -21 0 -101 -65 -116 -95 l-16 -30 -9
24 c-9 24 -9 24 -54 -20 -50 -48 -74 -87 -74 -118 0 -19 -36 -48 -47 -37 -3 2
7 20 21 39 28 37 34 67 13 67 -7 0 -49 -17 -93 -39 -78 -37 -135 -88 -149
-131 -6 -19 -41 -40 -66 -40 -5 0 11 19 36 43 46 45 58 72 28 63 -10 -3 -47
-10 -82 -16 -85 -15 -144 -44 -184 -90 -20 -23 -44 -39 -64 -43 -41 -8 -43 7
-4 21 56 20 138 125 84 108 -10 -3 -51 -10 -91 -16 -89 -12 -160 -41 -198 -81
-38 -40 -99 -41 -135 -3 -38 40 -95 65 -187 80 -46 7 -93 16 -103 19 -13 4
-19 1 -19 -9 0 -25 48 -73 96 -95 53 -25 52 -36 -3 -27 -28 5 -43 15 -55 35
-24 43 -92 77 -193 99 -49 11 -91 19 -93 17 -9 -8 24 -54 54 -74 38 -27 38
-37 -1 -27 -17 4 -31 18 -40 40 -8 18 -30 47 -50 65 -43 37 -193 112 -201 99
-8 -12 6 -49 28 -77 22 -29 18 -37 -11 -21 -14 7 -21 21 -21 41 0 22 -13 43
-54 84 -57 58 -72 66 -78 38 -3 -14 -8 -10 -23 15 -17 29 -99 92 -118 92 -4 0
-7 -11 -7 -25 0 -24 -10 -32 -22 -19 -4 3 -2 19 3 36 9 34 -10 89 -40 111 -10
7 -27 33 -40 60 -13 26 -29 47 -37 47 -9 0 -14 11 -14 31 0 17 -5 39 -10 50
-8 14 -7 32 5 65 9 26 13 49 10 52 -3 3 -18 -3 -33 -15 -26 -19 -45 -48 -57
-87 -4 -15 -8 -17 -17 -8 -9 9 -9 20 0 45 15 43 15 82 0 94 -21 16 -47 23 -53
13z"/>
<path d="M1928 1143 c-25 -59 -148 -443 -148 -462 0 -15 12 -19 68 -24 134
-13 360 -3 380 17 5 6 -99 339 -141 449 l-22 57 -60 0 c-61 0 -61 0 -77 -37z"/>
</g>
</svg>
